<?xml version="1.0" encoding="UTF-8"?>
<svg width="22px" height="21px" viewBox="0 0 22 21" version="1.1" xmlns="http://www.w3.org/2000/svg" xmlns:xlink="http://www.w3.org/1999/xlink">
    <!-- Generator: sketchtool 40.3 (33839) - http://www.bohemiancoding.com/sketch -->
    <title>9ABC8CC4-F76A-4810-83FD-818E991C0293</title>
    <desc>Created with sketchtool.</desc>
    <defs></defs>
    <g id="Page-1" stroke="none" stroke-width="1" fill="none" fill-rule="evenodd">
        <g id="Artboard" transform="translate(-1108.000000, -564.000000)">
            <g id="Item-Copy" transform="translate(938.000000, 557.000000)">
                <g id="DeleteIconShopingcartItem" transform="translate(170.000000, 7.000000)">
                    <path d="M8.38977051,7.875 L14.1600541,13.44" id="Stroke-3349" stroke="#ACA095"></path>
                    <path d="M14.1605078,7.875 L8.38977051,13.4404375" id="Stroke-3350" stroke="#ACA095"></path>
                    <path d="M11.1118164,0 C5.09836334,0 0.223632812,4.701375 0.223632812,10.5 C0.223632812,16.2995 5.09836334,21 11.1118164,21 C17.1257231,21 22,16.2995 22,10.5 C22,4.701375 17.1257231,0 11.1118164,0 M11.1118164,0.875 C16.6153395,0.875 21.0926514,5.1926875 21.0926514,10.5 C21.0926514,15.8073125 16.6153395,20.125 11.1118164,20.125 C5.60829327,20.125 1.13098145,15.8073125 1.13098145,10.5 C1.13098145,5.1926875 5.60829327,0.875 11.1118164,0.875" id="Fill-3351" fill="#ACA095"></path>
                </g>
            </g>
        </g>
    </g>
</svg>